<svg id="L3" xmlns="http://www.w3.org/2000/svg" viewBox="0 0 1442 1014.04437"><defs><style>.cls-1{fill:#006837;}.cls-2,.cls-3,.cls-4{fill:none;stroke:#000;stroke-miterlimit:10;}.cls-2{stroke-width:6px;}.cls-3{stroke-width:19px;}.cls-4{stroke-width:12px;}.cls-5{font-size:530.95276px;font-family:TimesNewRomanPSMT, Times New Roman;}.cls-6{letter-spacing:-0.03711em;}</style></defs><title>PUMLlogo_FINAL</title><g id="Ebene_2" data-name="Ebene 2"><polygon class="cls-1" points="334 309.624 256 353.624 177 383.624 98.606 392.071 98.606 24.196 162 12.624 310.693 8.028 401 20.624 452.687 54.951 455 115.624 437 167.624 395 244.624 334 309.624"/><path class="cls-2" d="M262.72974,316.57194c30.34015-15.17009,205.64086-7.585,205.64086-7.585" transform="translate(-75 -84.37555)"/><path class="cls-2" d="M368.3319,259.09578c24.65138-13.27382,133.32659-3.20417,133.32659-3.20417" transform="translate(-75 -84.37555)"/><path class="cls-3" d="M188.18722,96.19415c187.46231,0,341.91517-23.77674,341.91517,80.95081S378.13417,472.96151,190.67186,472.96151" transform="translate(-75 -84.37555)"/><path class="cls-4" d="M145.02066,335.48583c48.47568,12.33955,149.94644-25.43321,251.1224-97.21305,49.38676-35.03769,91.14891-72.81872,121.47083-108.112" transform="translate(-75 -84.37555)"/><path class="cls-2" d="M226.7008,326.05323c20.85886-5.68878,136.39957-226.04249,136.39957-226.04249" transform="translate(-75 -84.37555)"/><path class="cls-2" d="M305.75534,295.1247C339.888,268.57706,441.15825,102.80326,441.15825,102.80326" transform="translate(-75 -84.37555)"/></g><path d="M245.6634,935.52446H75l27.58967-26.63a33.47054,33.47054,0,0,0,10.33553-24.08427V86h94.813V884.83931a33.40132,33.40132,0,0,0,10.31417,24.0345Z" transform="translate(-75 -84.37555)"/><text class="cls-5" transform="translate(200.35791 851.23285)">UM<tspan class="cls-6" x="855.53857" y="0">L</tspan></text><path d="M245.6634,86H75l27.58967,26.63A33.47054,33.47054,0,0,1,112.9252,136.7143V935.52446h94.813V136.68514a33.40132,33.40132,0,0,1,10.31417-24.03449Z" transform="translate(-75 -84.37555)"/></svg>